# Blender v2.71 (sub 0) OBJ File: ''
# www.blender.org
o Cube_Cube.001
v -0.200000 1.800000 0.200000
v -0.200000 1.800000 -0.200000
v 0.200000 1.800000 -0.200000
v 0.200000 1.800000 0.200000
v -0.200000 2.200000 0.200000
v -0.200000 2.200000 -0.200000
v 0.200000 2.200000 -0.200000
v 0.200000 2.200000 0.200000
vn -1.000000 0.000000 0.000000
vn 0.000000 0.000000 -1.000000
vn 1.000000 0.000000 0.000000
vn 0.000000 0.000000 1.000000
vn 0.000000 -1.000000 0.000000
vn 0.000000 1.000000 0.000000
s off
f 6//1 2//1 1//1
f 7//2 3//2 2//2
f 8//3 4//3 3//3
f 5//4 1//4 4//4
f 2//5 3//5 4//5
f 7//6 6//6 5//6
f 5//1 6//1 1//1
f 6//2 7//2 2//2
f 7//3 8//3 3//3
f 8//4 5//4 4//4
f 1//5 2//5 4//5
f 8//6 7//6 5//6
o Cylinder
v 0.000000 0.000000 -0.100000
v 0.000000 2.000000 -0.100000
v 0.019509 0.000000 -0.098079
v 0.019509 2.000000 -0.098079
v 0.038268 0.000000 -0.092388
v 0.038268 2.000000 -0.092388
v 0.055557 0.000000 -0.083147
v 0.055557 2.000000 -0.083147
v 0.070711 0.000000 -0.070711
v 0.070711 2.000000 -0.070711
v 0.083147 0.000000 -0.055557
v 0.083147 2.000000 -0.055557
v 0.092388 0.000000 -0.038268
v 0.092388 2.000000 -0.038268
v 0.098079 0.000000 -0.019509
v 0.098079 2.000000 -0.019509
v 0.100000 0.000000 -0.000000
v 0.100000 2.000000 -0.000000
v 0.098079 0.000000 0.019509
v 0.098079 2.000000 0.019509
v 0.092388 0.000000 0.038268
v 0.092388 2.000000 0.038268
v 0.083147 0.000000 0.055557
v 0.083147 2.000000 0.055557
v 0.070711 0.000000 0.070711
v 0.070711 2.000000 0.070711
v 0.055557 0.000000 0.083147
v 0.055557 2.000000 0.083147
v 0.038268 0.000000 0.092388
v 0.038268 2.000000 0.092388
v 0.019509 0.000000 0.098079
v 0.019509 2.000000 0.098079
v -0.000000 0.000000 0.100000
v -0.000000 2.000000 0.100000
v -0.019509 0.000000 0.098079
v -0.019509 2.000000 0.098079
v -0.038268 0.000000 0.092388
v -0.038268 2.000000 0.092388
v -0.055557 0.000000 0.083147
v -0.055557 2.000000 0.083147
v -0.070711 0.000000 0.070711
v -0.070711 2.000000 0.070711
v -0.083147 0.000000 0.055557
v -0.083147 2.000000 0.055557
v -0.092388 0.000000 0.038268
v -0.092388 2.000000 0.038268
v -0.098079 0.000000 0.019509
v -0.098079 2.000000 0.019509
v -0.100000 0.000000 -0.000000
v -0.100000 2.000000 -0.000000
v -0.098079 0.000000 -0.019509
v -0.098079 2.000000 -0.019509
v -0.092388 0.000000 -0.038268
v -0.092388 2.000000 -0.038268
v -0.083147 0.000000 -0.055557
v -0.083147 2.000000 -0.055557
v -0.070711 0.000000 -0.070711
v -0.070711 2.000000 -0.070711
v -0.055557 0.000000 -0.083147
v -0.055557 2.000000 -0.083147
v -0.038268 0.000000 -0.092388
v -0.038268 2.000000 -0.092388
v -0.019509 0.000000 -0.098079
v -0.019509 2.000000 -0.098079
vn 0.098000 0.000000 -0.995200
vn 0.290300 0.000000 -0.956900
vn 0.471400 0.000000 -0.881900
vn 0.634400 0.000000 -0.773000
vn 0.773000 0.000000 -0.634400
vn 0.881900 0.000000 -0.471400
vn 0.956900 0.000000 -0.290300
vn 0.995200 0.000000 -0.098000
vn 0.995200 0.000000 0.098000
vn 0.956900 0.000000 0.290300
vn 0.881900 0.000000 0.471400
vn 0.773000 0.000000 0.634400
vn 0.634400 0.000000 0.773000
vn 0.471400 0.000000 0.881900
vn 0.290300 0.000000 0.956900
vn 0.098000 0.000000 0.995200
vn -0.098000 0.000000 0.995200
vn -0.290300 0.000000 0.956900
vn -0.471400 0.000000 0.881900
vn -0.634400 0.000000 0.773000
vn -0.773000 0.000000 0.634400
vn -0.881900 0.000000 0.471400
vn -0.956900 0.000000 0.290300
vn -0.995200 0.000000 0.098000
vn -0.995200 0.000000 -0.098000
vn -0.956900 0.000000 -0.290300
vn -0.881900 0.000000 -0.471400
vn -0.773000 0.000000 -0.634400
vn -0.634400 0.000000 -0.773000
vn -0.471400 0.000000 -0.881900
vn 0.000000 1.000000 -0.000000
vn -0.098000 0.000000 -0.995200
vn -0.290300 0.000000 -0.956900
vn 0.000000 -1.000000 0.000000
vn 0.000000 1.000000 0.000100
s off
f 10//7 12//7 11//7
f 12//8 14//8 13//8
f 14//9 16//9 15//9
f 16//10 18//10 17//10
f 18//11 20//11 19//11
f 20//12 22//12 21//12
f 22//13 24//13 23//13
f 24//14 26//14 25//14
f 26//15 28//15 27//15
f 28//16 30//16 29//16
f 30//17 32//17 31//17
f 32//18 34//18 33//18
f 34//19 36//19 35//19
f 36//20 38//20 37//20
f 38//21 40//21 39//21
f 40//22 42//22 41//22
f 42//23 44//23 43//23
f 44//24 46//24 45//24
f 46//25 48//25 47//25
f 48//26 50//26 49//26
f 50//27 52//27 51//27
f 52//28 54//28 53//28
f 54//29 56//29 55//29
f 56//30 58//30 57//30
f 58//31 60//31 59//31
f 60//32 62//32 61//32
f 62//33 64//33 63//33
f 64//34 66//34 65//34
f 66//35 68//35 67//35
f 68//36 70//36 69//36
f 46//37 30//37 14//37
f 71//38 72//38 10//38
f 70//39 72//39 71//39
f 21//40 23//40 39//40
f 9//7 10//7 11//7
f 11//8 12//8 13//8
f 13//9 14//9 15//9
f 15//10 16//10 17//10
f 17//11 18//11 19//11
f 19//12 20//12 21//12
f 21//13 22//13 23//13
f 23//14 24//14 25//14
f 25//15 26//15 27//15
f 27//16 28//16 29//16
f 29//17 30//17 31//17
f 31//18 32//18 33//18
f 33//19 34//19 35//19
f 35//20 36//20 37//20
f 37//21 38//21 39//21
f 39//22 40//22 41//22
f 41//23 42//23 43//23
f 43//24 44//24 45//24
f 45//25 46//25 47//25
f 47//26 48//26 49//26
f 49//27 50//27 51//27
f 51//28 52//28 53//28
f 53//29 54//29 55//29
f 55//30 56//30 57//30
f 57//31 58//31 59//31
f 59//32 60//32 61//32
f 61//33 62//33 63//33
f 63//34 64//34 65//34
f 65//35 66//35 67//35
f 67//36 68//36 69//36
f 10//37 72//37 12//37
f 12//37 62//37 46//37
f 66//37 62//37 68//37
f 66//37 64//37 62//37
f 62//37 60//37 58//37
f 30//37 46//37 44//37
f 50//37 56//37 52//37
f 69//39 70//39 71//39
f 42//37 30//37 44//37
f 38//37 36//37 40//37
f 34//37 42//37 36//37
f 34//37 32//37 30//37
f 30//37 28//37 26//37
f 26//37 24//37 22//37
f 22//37 20//37 18//37
f 14//37 22//37 16//37
f 70//37 68//37 72//37
f 68//37 62//37 72//37
f 56//37 54//37 52//37
f 48//37 46//37 56//37
f 62//37 58//37 56//37
f 30//37 42//37 34//37
f 30//37 26//37 22//37
f 12//37 72//37 62//37
f 48//37 56//37 50//37
f 62//37 56//37 46//37
f 36//41 42//41 40//41
f 30//37 22//37 14//37
f 14//37 12//37 46//37
f 9//38 71//38 10//38
f 22//37 18//37 16//37
f 71//40 9//40 11//40
f 11//40 13//40 15//40
f 15//40 17//40 19//40
f 63//40 71//40 15//40
f 27//40 29//40 25//40
f 61//40 55//40 57//40
f 31//40 33//40 35//40
f 35//40 37//40 39//40
f 39//40 41//40 43//40
f 43//40 45//40 47//40
f 47//40 49//40 51//40
f 51//40 53//40 55//40
f 59//40 61//40 57//40
f 63//40 15//40 61//40
f 67//40 69//40 65//40
f 71//40 63//40 69//40
f 71//40 11//40 15//40
f 29//40 31//40 39//40
f 31//40 35//40 39//40
f 39//40 43//40 47//40
f 47//40 51//40 55//40
f 15//40 19//40 21//40
f 29//40 23//40 25//40
f 69//40 63//40 65//40
f 23//40 29//40 39//40
f 39//40 47//40 55//40
f 15//40 21//40 61//40
f 55//40 21//40 39//40
f 21//40 55//40 61//40
